# xmcd CD database file
#
# Track frame offsets:
#	150
#	8729
#	22596
#	28758
#	39608
#	51866
#	60860
#	70351
#	76029
#	86415
#	93137
#	105105
#	113711
#	123699
#	134546
#	141329
#	148797
#	155755
#	162994
#	175621
#	190623
#
# Disc length: 2591 seconds
#
# Revision: 0
# Processed by: cddbd v1.5.2PL0 Copyright (c) Steve Scherf et al.
# Submitted via: CDex 1.51
#
DISCID=070a1d15
DTITLE=DJ Jay Honey - Real Deal Mixtape vol. 1
DYEAR=1900
DGENRE=Salsa
TTITLE0=It Still Ain't Hard To Tell
TTITLE1=The Game feat. Snoop - California Vacation
TTITLE2=Roots Manuva - Witness Dub
TTITLE3=Clipse feat. Pharrel - Stuntin Y'All (Ghislan Poirier Remix)
TTITLE4=Method Man and Prodigy - Survival of the Plo (Jay Honey Remix)
TTITLE5=Black Milk feat . Guilty Simpson - Ring the Alarm
TTITLE6=Ward 21 - Last Night
TTITLE7=Jodarok - Adios (Jay Honey Remix)
TTITLE8=Red Astaire - Go Move
TTITLE9=Camp Lo Feat. Run and Kid Capri - Black Nostaljack (Jay Honey Remix)
TTITLE10=Clipse - Mr. Me Too (Jay Honey Remix)
TTITLE11=Med - All I Know
TTITLE12=Spacek - Eve (J Dilla Remix feat. Frank and Dank)
TTITLE13=Smif N Wessun - Sound Bwoy  Bureill
TTITLE14=Bounty Killer - Fed Up
TTITLE15=El P - EMG
TTITLE16=Dizzee Rascal - Sirens
TTITLE17=The Bug feat. Killer Queen - Aktion Pak
TTITLE18=Ghostface Killah - Milk Em (Ricci Rucker Remix)
TTITLE19=Mac Dre and Mac Mall - Cuddles Say Yee
TTITLE20=Peanut Butter Wolf Break
EXTD=
EXTT0=
EXTT1=
EXTT2=
EXTT3=
EXTT4=
EXTT5=
EXTT6=
EXTT7=
EXTT8=
EXTT9=
EXTT10=
EXTT11=
EXTT12=
EXTT13=
EXTT14=
EXTT15=
EXTT16=
EXTT17=
EXTT18=
EXTT19=
EXTT20=
PLAYORDER=
